<?xml version="1.0" encoding="UTF-8" standalone="no"?>
<!-- Svg Vector Icons : http://www.onlinewebfonts.com/icon -->

<svg
   version="1.1"
   x="0px"
   y="0px"
   viewBox="0 0 1000 1000"
   enable-background="new 0 0 1000 1000"
   xml:space="preserve"
   id="svg23473"
   sodipodi:docname="marker.svg"
   inkscape:version="1.2.1 (9c6d41e, 2022-07-14)"
   xmlns:inkscape="http://www.inkscape.org/namespaces/inkscape"
   xmlns:sodipodi="http://sodipodi.sourceforge.net/DTD/sodipodi-0.dtd"
   xmlns="http://www.w3.org/2000/svg"
   xmlns:svg="http://www.w3.org/2000/svg"><defs
   id="defs23477" /><sodipodi:namedview
   id="namedview23475"
   pagecolor="#ffffff"
   bordercolor="#000000"
   borderopacity="0.25"
   inkscape:showpageshadow="2"
   inkscape:pageopacity="0.0"
   inkscape:pagecheckerboard="0"
   inkscape:deskcolor="#d1d1d1"
   showgrid="false"
   inkscape:zoom="1.027"
   inkscape:cx="345.18014"
   inkscape:cy="500"
   inkscape:window-width="1390"
   inkscape:window-height="1205"
   inkscape:window-x="277"
   inkscape:window-y="25"
   inkscape:window-maximized="0"
   inkscape:current-layer="g23469" />
<metadata
   id="metadata23459"> Svg Vector Icons : http://www.onlinewebfonts.com/icon </metadata>
<g
   id="g23471"><g
     transform="translate(0.000000,511.000000) scale(0.100000,-0.100000)"
     id="g23469"><path
       d="M7700.7,4999c-188.5-32.9-324.5-116.2-598.5-361.7c-144.7-129.3-716.9-653.3-1271.6-1159.8C5275.9,2968.8,4488.8,2249.8,4083.3,1877c-407.8-372.7-741-681.8-741-690.6c0-6.6,98.7-111.8,219.2-232.4l219.2-217l70.2,65.8c39.5,37.3,655.5,589.7,1365.8,1227.7c712.5,638,1541.2,1381.2,1841.6,1650.9c302.5,271.9,585.4,526.2,631.4,565.6c63.6,57,100.9,72.3,173.2,72.3c89.9,0,100.8-8.8,526.2-434.1c427.5-425.3,434.1-434.1,434.1-526.2c0-72.4-15.4-109.6-72.3-173.2c-41.7-46-423.1-473.5-850.6-949.3C7472.7,1760.8,6725.1,927.7,6238.4,384c-486.7-541.5-909.8-1012.9-942.7-1047.9l-54.8-59.2l217-219.2c120.6-120.6,225.8-219.2,232.4-219.2c13.2,0,420.9,440.7,1359.3,1468.9c138.1,151.3,662.1,725.7,1164.2,1276c1188.3,1300.1,1148.8,1254,1210.2,1383.4c74.5,155.7,103,353,76.7,524c-41.7,263.1-96.5,337.6-598.5,846.3c-254.3,256.5-508.6,497.7-565.6,532.8C8161.1,4983.7,7906.8,5034.1,7700.7,4999z"
       id="path23461" /><path
       d="M2699.9,616.4c-493.3-453.8-548.1-565.6-456-944.9c122.8-495.5,72.4-787.1-188.5-1126.9l-100.8-127.2l484.5-482.3l482.3-484.5l127.2,100.8c339.8,260.9,616.1,309.1,1115.9,190.7c390.2-92.1,499.9-41.7,942.7,440.7c175.4,190.7,320.1,355.2,322.3,363.9c4.4,11-528.4,554.7-1181.7,1208L3059.4,943.1L2699.9,616.4z"
       id="path23463" /><path
       d="M1112.6-2417.8c-313.5-315.7-583.2-596.3-596.3-622.6c-61.4-118.4-11-311.3,98.7-390.2c24.1-15.4,219.2-83.3,431.9-151.3c642.4-201.7,659.9-197.3,1225.6,374.9l390.2,390.2l-488.9,488.9L1687-1841.2L1112.6-2417.8z"
       id="path23465" /></g></g>
</svg>
