<?xml version="1.0" encoding="UTF-8" standalone="no"?>
<!-- Generator: Adobe Illustrator 16.0.0, SVG Export Plug-In . SVG Version: 6.00 Build 0)  -->

<svg
   version="1.1"
   id="Capa_1"
   x="0px"
   y="0px"
   width="19.474846"
   height="50.219795"
   viewBox="0 0 19.474845 50.219795"
   xml:space="preserve"
   sodipodi:docname="pen_customizations_visual.svg"
   inkscape:version="1.2.1 (9c6d41e, 2022-07-14)"
   xmlns:inkscape="http://www.inkscape.org/namespaces/inkscape"
   xmlns:sodipodi="http://sodipodi.sourceforge.net/DTD/sodipodi-0.dtd"
   xmlns="http://www.w3.org/2000/svg"
   xmlns:svg="http://www.w3.org/2000/svg"><defs
   id="defs40770" /><sodipodi:namedview
   id="namedview40768"
   pagecolor="#ffffff"
   bordercolor="#000000"
   borderopacity="0.25"
   inkscape:showpageshadow="2"
   inkscape:pageopacity="0.0"
   inkscape:pagecheckerboard="0"
   inkscape:deskcolor="#d1d1d1"
   showgrid="false"
   inkscape:zoom="20.449612"
   inkscape:cx="0.4156558"
   inkscape:cy="26.137415"
   inkscape:window-width="1558"
   inkscape:window-height="1205"
   inkscape:window-x="1678"
   inkscape:window-y="56"
   inkscape:window-maximized="0"
   inkscape:current-layer="Capa_1" />
















<g
   id="g42678"
   transform="matrix(0.01463299,0,0,0.01693418,1.4796227,24.72055)">
	<g
   id="g41900">
		<g
   id="g41898">
			<g
   id="g41896">
				<g
   id="g41894">
					<g
   id="g41892">
						<g
   id="g41890">
							<g
   id="g41888">
								<g
   id="g41886">
									<g
   id="g41884">
										<g
   id="g41882">
											<g
   id="g41880">
												<g
   id="g41878">
													<g
   id="g41876">
														<g
   id="g41874">
															<g
   id="g41872">
																<g
   id="g41870">
																	<g
   id="g41868">
																		<g
   id="g41866">
																			<g
   id="g41864">
																				<g
   id="g41862">
																					<g
   id="g41860">
																						<g
   id="g41858">
																							<g
   id="g41856">
																								<path
   style="fill:#000002"
   d="M 200.865,212.808 H 64.882 c -12.407,0 -22.5,-10.093 -22.5,-22.5 V 74.917 c 0,-12.407 10.093,-22.5 22.5,-22.5 h 135.982 c 12.407,0 22.5,10.093 22.5,22.5 v 115.392 c 0.001,12.406 -10.092,22.499 -22.499,22.499 z M 64.882,67.417 c -4.135,0 -7.5,3.364 -7.5,7.5 v 115.392 c 0,4.136 3.365,7.5 7.5,7.5 h 135.982 c 4.135,0 7.5,-3.364 7.5,-7.5 V 74.917 c 0,-4.136 -3.365,-7.5 -7.5,-7.5 z"
   id="path41854" />
																							</g>
																						</g>
																					</g>
																				</g>
																			</g>
																		</g>
																	</g>
																</g>
															</g>
														</g>
													</g>
												</g>
											</g>
										</g>
									</g>
								</g>
							</g>
						</g>
					</g>
				</g>
			</g>
		</g>
	</g>
	<g
   id="g42094">
		<g
   id="g41948">
			<g
   id="g41946">
				<g
   id="g41944">
					<g
   id="g41942">
						<g
   id="g41940">
							<g
   id="g41938">
								<g
   id="g41936">
									<g
   id="g41934">
										<g
   id="g41932">
											<g
   id="g41930">
												<g
   id="g41928">
													<g
   id="g41926">
														<g
   id="g41924">
															<g
   id="g41922">
																<g
   id="g41920">
																	<g
   id="g41918">
																		<g
   id="g41916">
																			<g
   id="g41914">
																				<g
   id="g41912">
																					<g
   id="g41910">
																						<g
   id="g41908">
																							<g
   id="g41906">
																								<g
   id="g41904">
																									<path
   style="fill:#000002"
   d="m 76.856,66.571 c -4.142,0 -7.5,-3.358 -7.5,-7.5 V 16.912 c 0,-4.142 3.358,-7.5 7.5,-7.5 4.142,0 7.5,3.358 7.5,7.5 v 42.159 c 0,4.142 -3.358,7.5 -7.5,7.5 z"
   id="path41902" />
																								</g>
																							</g>
																						</g>
																					</g>
																				</g>
																			</g>
																		</g>
																	</g>
																</g>
															</g>
														</g>
													</g>
												</g>
											</g>
										</g>
									</g>
								</g>
							</g>
						</g>
					</g>
				</g>
			</g>
		</g>
		<g
   id="g41996">
			<g
   id="g41994">
				<g
   id="g41992">
					<g
   id="g41990">
						<g
   id="g41988">
							<g
   id="g41986">
								<g
   id="g41984">
									<g
   id="g41982">
										<g
   id="g41980">
											<g
   id="g41978">
												<g
   id="g41976">
													<g
   id="g41974">
														<g
   id="g41972">
															<g
   id="g41970">
																<g
   id="g41968">
																	<g
   id="g41966">
																		<g
   id="g41964">
																			<g
   id="g41962">
																				<g
   id="g41960">
																					<g
   id="g41958">
																						<g
   id="g41956">
																							<g
   id="g41954">
																								<g
   id="g41952">
																									<path
   style="fill:#000002"
   d="m 114.201,66.571 c -4.142,0 -7.5,-3.358 -7.5,-7.5 V 16.912 c 0,-4.142 3.358,-7.5 7.5,-7.5 4.142,0 7.5,3.358 7.5,7.5 v 42.159 c 0,4.142 -3.358,7.5 -7.5,7.5 z"
   id="path41950" />
																								</g>
																							</g>
																						</g>
																					</g>
																				</g>
																			</g>
																		</g>
																	</g>
																</g>
															</g>
														</g>
													</g>
												</g>
											</g>
										</g>
									</g>
								</g>
							</g>
						</g>
					</g>
				</g>
			</g>
		</g>
		<g
   id="g42044">
			<g
   id="g42042">
				<g
   id="g42040">
					<g
   id="g42038">
						<g
   id="g42036">
							<g
   id="g42034">
								<g
   id="g42032">
									<g
   id="g42030">
										<g
   id="g42028">
											<g
   id="g42026">
												<g
   id="g42024">
													<g
   id="g42022">
														<g
   id="g42020">
															<g
   id="g42018">
																<g
   id="g42016">
																	<g
   id="g42014">
																		<g
   id="g42012">
																			<g
   id="g42010">
																				<g
   id="g42008">
																					<g
   id="g42006">
																						<g
   id="g42004">
																							<g
   id="g42002">
																								<g
   id="g42000">
																									<path
   style="fill:#000002"
   d="m 151.547,66.571 c -4.142,0 -7.5,-3.358 -7.5,-7.5 V 16.912 c 0,-4.142 3.358,-7.5 7.5,-7.5 4.142,0 7.5,3.358 7.5,7.5 v 42.159 c 0,4.142 -3.358,7.5 -7.5,7.5 z"
   id="path41998" />
																								</g>
																							</g>
																						</g>
																					</g>
																				</g>
																			</g>
																		</g>
																	</g>
																</g>
															</g>
														</g>
													</g>
												</g>
											</g>
										</g>
									</g>
								</g>
							</g>
						</g>
					</g>
				</g>
			</g>
		</g>
		<g
   id="g42092">
			<g
   id="g42090">
				<g
   id="g42088">
					<g
   id="g42086">
						<g
   id="g42084">
							<g
   id="g42082">
								<g
   id="g42080">
									<g
   id="g42078">
										<g
   id="g42076">
											<g
   id="g42074">
												<g
   id="g42072">
													<g
   id="g42070">
														<g
   id="g42068">
															<g
   id="g42066">
																<g
   id="g42064">
																	<g
   id="g42062">
																		<g
   id="g42060">
																			<g
   id="g42058">
																				<g
   id="g42056">
																					<g
   id="g42054">
																						<g
   id="g42052">
																							<g
   id="g42050">
																								<g
   id="g42048">
																									<path
   style="fill:#000002"
   d="m 188.891,66.571 c -4.142,0 -7.5,-3.358 -7.5,-7.5 V 16.912 c 0,-4.142 3.358,-7.5 7.5,-7.5 4.142,0 7.5,3.358 7.5,7.5 v 42.159 c 0,4.142 -3.358,7.5 -7.5,7.5 z"
   id="path42046" />
																								</g>
																							</g>
																						</g>
																					</g>
																				</g>
																			</g>
																		</g>
																	</g>
																</g>
															</g>
														</g>
													</g>
												</g>
											</g>
										</g>
									</g>
								</g>
							</g>
						</g>
					</g>
				</g>
			</g>
		</g>
	</g>
	<g
   id="g42288">
		<g
   id="g42142">
			<g
   id="g42140">
				<g
   id="g42138">
					<g
   id="g42136">
						<g
   id="g42134">
							<g
   id="g42132">
								<g
   id="g42130">
									<g
   id="g42128">
										<g
   id="g42126">
											<g
   id="g42124">
												<g
   id="g42122">
													<g
   id="g42120">
														<g
   id="g42118">
															<g
   id="g42116">
																<g
   id="g42114">
																	<g
   id="g42112">
																		<g
   id="g42110">
																			<g
   id="g42108">
																				<g
   id="g42106">
																					<g
   id="g42104">
																						<g
   id="g42102">
																							<g
   id="g42100">
																								<g
   id="g42098">
																									<path
   style="fill:#000002"
   d="m 258.023,84.094 h -42.158 c -4.142,0 -7.5,-3.358 -7.5,-7.5 0,-4.142 3.358,-7.5 7.5,-7.5 h 42.158 c 4.142,0 7.5,3.358 7.5,7.5 0,4.142 -3.358,7.5 -7.5,7.5 z"
   id="path42096" />
																								</g>
																							</g>
																						</g>
																					</g>
																				</g>
																			</g>
																		</g>
																	</g>
																</g>
															</g>
														</g>
													</g>
												</g>
											</g>
										</g>
									</g>
								</g>
							</g>
						</g>
					</g>
				</g>
			</g>
		</g>
		<g
   id="g42190">
			<g
   id="g42188">
				<g
   id="g42186">
					<g
   id="g42184">
						<g
   id="g42182">
							<g
   id="g42180">
								<g
   id="g42178">
									<g
   id="g42176">
										<g
   id="g42174">
											<g
   id="g42172">
												<g
   id="g42170">
													<g
   id="g42168">
														<g
   id="g42166">
															<g
   id="g42164">
																<g
   id="g42162">
																	<g
   id="g42160">
																		<g
   id="g42158">
																			<g
   id="g42156">
																				<g
   id="g42154">
																					<g
   id="g42152">
																						<g
   id="g42150">
																							<g
   id="g42148">
																								<g
   id="g42146">
																									<path
   style="fill:#000002"
   d="m 258.023,121.44 h -42.158 c -4.142,0 -7.5,-3.358 -7.5,-7.5 0,-4.142 3.358,-7.5 7.5,-7.5 h 42.158 c 4.142,0 7.5,3.358 7.5,7.5 0,4.142 -3.358,7.5 -7.5,7.5 z"
   id="path42144" />
																								</g>
																							</g>
																						</g>
																					</g>
																				</g>
																			</g>
																		</g>
																	</g>
																</g>
															</g>
														</g>
													</g>
												</g>
											</g>
										</g>
									</g>
								</g>
							</g>
						</g>
					</g>
				</g>
			</g>
		</g>
		<g
   id="g42238">
			<g
   id="g42236">
				<g
   id="g42234">
					<g
   id="g42232">
						<g
   id="g42230">
							<g
   id="g42228">
								<g
   id="g42226">
									<g
   id="g42224">
										<g
   id="g42222">
											<g
   id="g42220">
												<g
   id="g42218">
													<g
   id="g42216">
														<g
   id="g42214">
															<g
   id="g42212">
																<g
   id="g42210">
																	<g
   id="g42208">
																		<g
   id="g42206">
																			<g
   id="g42204">
																				<g
   id="g42202">
																					<g
   id="g42200">
																						<g
   id="g42198">
																							<g
   id="g42196">
																								<g
   id="g42194">
																									<path
   style="fill:#000002"
   d="m 258.023,158.785 h -42.158 c -4.142,0 -7.5,-3.358 -7.5,-7.5 0,-4.142 3.358,-7.5 7.5,-7.5 h 42.158 c 4.142,0 7.5,3.358 7.5,7.5 0,4.142 -3.358,7.5 -7.5,7.5 z"
   id="path42192" />
																								</g>
																							</g>
																						</g>
																					</g>
																				</g>
																			</g>
																		</g>
																	</g>
																</g>
															</g>
														</g>
													</g>
												</g>
											</g>
										</g>
									</g>
								</g>
							</g>
						</g>
					</g>
				</g>
			</g>
		</g>
		<g
   id="g42286">
			<g
   id="g42284">
				<g
   id="g42282">
					<g
   id="g42280">
						<g
   id="g42278">
							<g
   id="g42276">
								<g
   id="g42274">
									<g
   id="g42272">
										<g
   id="g42270">
											<g
   id="g42268">
												<g
   id="g42266">
													<g
   id="g42264">
														<g
   id="g42262">
															<g
   id="g42260">
																<g
   id="g42258">
																	<g
   id="g42256">
																		<g
   id="g42254">
																			<g
   id="g42252">
																				<g
   id="g42250">
																					<g
   id="g42248">
																						<g
   id="g42246">
																							<g
   id="g42244">
																								<g
   id="g42242">
																									<path
   style="fill:#000002"
   d="m 258.023,196.129 h -42.158 c -4.142,0 -7.5,-3.358 -7.5,-7.5 0,-4.142 3.358,-7.5 7.5,-7.5 h 42.158 c 4.142,0 7.5,3.358 7.5,7.5 0,4.142 -3.358,7.5 -7.5,7.5 z"
   id="path42240" />
																								</g>
																							</g>
																						</g>
																					</g>
																				</g>
																			</g>
																		</g>
																	</g>
																</g>
															</g>
														</g>
													</g>
												</g>
											</g>
										</g>
									</g>
								</g>
							</g>
						</g>
					</g>
				</g>
			</g>
		</g>
	</g>
	<g
   id="g42482">
		<g
   id="g42336">
			<g
   id="g42334">
				<g
   id="g42332">
					<g
   id="g42330">
						<g
   id="g42328">
							<g
   id="g42326">
								<g
   id="g42324">
									<g
   id="g42322">
										<g
   id="g42320">
											<g
   id="g42318">
												<g
   id="g42316">
													<g
   id="g42314">
														<g
   id="g42312">
															<g
   id="g42310">
																<g
   id="g42308">
																	<g
   id="g42306">
																		<g
   id="g42304">
																			<g
   id="g42302">
																				<g
   id="g42300">
																					<g
   id="g42298">
																						<g
   id="g42296">
																							<g
   id="g42294">
																								<g
   id="g42292">
																									<path
   style="fill:#000002"
   d="M 49.659,84.094 H 7.5 c -4.142,0 -7.5,-3.358 -7.5,-7.5 0,-4.142 3.358,-7.5 7.5,-7.5 h 42.159 c 4.142,0 7.5,3.358 7.5,7.5 0,4.142 -3.358,7.5 -7.5,7.5 z"
   id="path42290" />
																								</g>
																							</g>
																						</g>
																					</g>
																				</g>
																			</g>
																		</g>
																	</g>
																</g>
															</g>
														</g>
													</g>
												</g>
											</g>
										</g>
									</g>
								</g>
							</g>
						</g>
					</g>
				</g>
			</g>
		</g>
		<g
   id="g42384">
			<g
   id="g42382">
				<g
   id="g42380">
					<g
   id="g42378">
						<g
   id="g42376">
							<g
   id="g42374">
								<g
   id="g42372">
									<g
   id="g42370">
										<g
   id="g42368">
											<g
   id="g42366">
												<g
   id="g42364">
													<g
   id="g42362">
														<g
   id="g42360">
															<g
   id="g42358">
																<g
   id="g42356">
																	<g
   id="g42354">
																		<g
   id="g42352">
																			<g
   id="g42350">
																				<g
   id="g42348">
																					<g
   id="g42346">
																						<g
   id="g42344">
																							<g
   id="g42342">
																								<g
   id="g42340">
																									<path
   style="fill:#000002"
   d="M 49.659,121.44 H 7.5 c -4.142,0 -7.5,-3.358 -7.5,-7.5 0,-4.142 3.358,-7.5 7.5,-7.5 h 42.159 c 4.142,0 7.5,3.358 7.5,7.5 0,4.142 -3.358,7.5 -7.5,7.5 z"
   id="path42338" />
																								</g>
																							</g>
																						</g>
																					</g>
																				</g>
																			</g>
																		</g>
																	</g>
																</g>
															</g>
														</g>
													</g>
												</g>
											</g>
										</g>
									</g>
								</g>
							</g>
						</g>
					</g>
				</g>
			</g>
		</g>
		<g
   id="g42432">
			<g
   id="g42430">
				<g
   id="g42428">
					<g
   id="g42426">
						<g
   id="g42424">
							<g
   id="g42422">
								<g
   id="g42420">
									<g
   id="g42418">
										<g
   id="g42416">
											<g
   id="g42414">
												<g
   id="g42412">
													<g
   id="g42410">
														<g
   id="g42408">
															<g
   id="g42406">
																<g
   id="g42404">
																	<g
   id="g42402">
																		<g
   id="g42400">
																			<g
   id="g42398">
																				<g
   id="g42396">
																					<g
   id="g42394">
																						<g
   id="g42392">
																							<g
   id="g42390">
																								<g
   id="g42388">
																									<path
   style="fill:#000002"
   d="M 49.659,158.785 H 7.5 c -4.142,0 -7.5,-3.358 -7.5,-7.5 0,-4.142 3.358,-7.5 7.5,-7.5 h 42.159 c 4.142,0 7.5,3.358 7.5,7.5 0,4.142 -3.358,7.5 -7.5,7.5 z"
   id="path42386" />
																								</g>
																							</g>
																						</g>
																					</g>
																				</g>
																			</g>
																		</g>
																	</g>
																</g>
															</g>
														</g>
													</g>
												</g>
											</g>
										</g>
									</g>
								</g>
							</g>
						</g>
					</g>
				</g>
			</g>
		</g>
		<g
   id="g42480">
			<g
   id="g42478">
				<g
   id="g42476">
					<g
   id="g42474">
						<g
   id="g42472">
							<g
   id="g42470">
								<g
   id="g42468">
									<g
   id="g42466">
										<g
   id="g42464">
											<g
   id="g42462">
												<g
   id="g42460">
													<g
   id="g42458">
														<g
   id="g42456">
															<g
   id="g42454">
																<g
   id="g42452">
																	<g
   id="g42450">
																		<g
   id="g42448">
																			<g
   id="g42446">
																				<g
   id="g42444">
																					<g
   id="g42442">
																						<g
   id="g42440">
																							<g
   id="g42438">
																								<g
   id="g42436">
																									<path
   style="fill:#000002"
   d="M 49.659,196.129 H 7.5 c -4.142,0 -7.5,-3.358 -7.5,-7.5 0,-4.142 3.358,-7.5 7.5,-7.5 h 42.159 c 4.142,0 7.5,3.358 7.5,7.5 0,4.142 -3.358,7.5 -7.5,7.5 z"
   id="path42434" />
																								</g>
																							</g>
																						</g>
																					</g>
																				</g>
																			</g>
																		</g>
																	</g>
																</g>
															</g>
														</g>
													</g>
												</g>
											</g>
										</g>
									</g>
								</g>
							</g>
						</g>
					</g>
				</g>
			</g>
		</g>
	</g>
	<g
   id="g42676">
		<g
   id="g42530">
			<g
   id="g42528">
				<g
   id="g42526">
					<g
   id="g42524">
						<g
   id="g42522">
							<g
   id="g42520">
								<g
   id="g42518">
									<g
   id="g42516">
										<g
   id="g42514">
											<g
   id="g42512">
												<g
   id="g42510">
													<g
   id="g42508">
														<g
   id="g42506">
															<g
   id="g42504">
																<g
   id="g42502">
																	<g
   id="g42500">
																		<g
   id="g42498">
																			<g
   id="g42496">
																				<g
   id="g42494">
																					<g
   id="g42492">
																						<g
   id="g42490">
																							<g
   id="g42488">
																								<g
   id="g42486">
																									<path
   style="fill:#000002"
   d="m 76.856,256.111 c -4.142,0 -7.5,-3.358 -7.5,-7.5 v -42.159 c 0,-4.142 3.358,-7.5 7.5,-7.5 4.142,0 7.5,3.358 7.5,7.5 v 42.159 c 0,4.142 -3.358,7.5 -7.5,7.5 z"
   id="path42484" />
																								</g>
																							</g>
																						</g>
																					</g>
																				</g>
																			</g>
																		</g>
																	</g>
																</g>
															</g>
														</g>
													</g>
												</g>
											</g>
										</g>
									</g>
								</g>
							</g>
						</g>
					</g>
				</g>
			</g>
		</g>
		<g
   id="g42578">
			<g
   id="g42576">
				<g
   id="g42574">
					<g
   id="g42572">
						<g
   id="g42570">
							<g
   id="g42568">
								<g
   id="g42566">
									<g
   id="g42564">
										<g
   id="g42562">
											<g
   id="g42560">
												<g
   id="g42558">
													<g
   id="g42556">
														<g
   id="g42554">
															<g
   id="g42552">
																<g
   id="g42550">
																	<g
   id="g42548">
																		<g
   id="g42546">
																			<g
   id="g42544">
																				<g
   id="g42542">
																					<g
   id="g42540">
																						<g
   id="g42538">
																							<g
   id="g42536">
																								<g
   id="g42534">
																									<path
   style="fill:#000002"
   d="m 114.201,256.111 c -4.142,0 -7.5,-3.358 -7.5,-7.5 v -42.159 c 0,-4.142 3.358,-7.5 7.5,-7.5 4.142,0 7.5,3.358 7.5,7.5 v 42.159 c 0,4.142 -3.358,7.5 -7.5,7.5 z"
   id="path42532" />
																								</g>
																							</g>
																						</g>
																					</g>
																				</g>
																			</g>
																		</g>
																	</g>
																</g>
															</g>
														</g>
													</g>
												</g>
											</g>
										</g>
									</g>
								</g>
							</g>
						</g>
					</g>
				</g>
			</g>
		</g>
		<g
   id="g42626">
			<g
   id="g42624">
				<g
   id="g42622">
					<g
   id="g42620">
						<g
   id="g42618">
							<g
   id="g42616">
								<g
   id="g42614">
									<g
   id="g42612">
										<g
   id="g42610">
											<g
   id="g42608">
												<g
   id="g42606">
													<g
   id="g42604">
														<g
   id="g42602">
															<g
   id="g42600">
																<g
   id="g42598">
																	<g
   id="g42596">
																		<g
   id="g42594">
																			<g
   id="g42592">
																				<g
   id="g42590">
																					<g
   id="g42588">
																						<g
   id="g42586">
																							<g
   id="g42584">
																								<g
   id="g42582">
																									<path
   style="fill:#000002"
   d="m 151.547,256.111 c -4.142,0 -7.5,-3.358 -7.5,-7.5 v -42.159 c 0,-4.142 3.358,-7.5 7.5,-7.5 4.142,0 7.5,3.358 7.5,7.5 v 42.159 c 0,4.142 -3.358,7.5 -7.5,7.5 z"
   id="path42580" />
																								</g>
																							</g>
																						</g>
																					</g>
																				</g>
																			</g>
																		</g>
																	</g>
																</g>
															</g>
														</g>
													</g>
												</g>
											</g>
										</g>
									</g>
								</g>
							</g>
						</g>
					</g>
				</g>
			</g>
		</g>
		<g
   id="g42674">
			<g
   id="g42672">
				<g
   id="g42670">
					<g
   id="g42668">
						<g
   id="g42666">
							<g
   id="g42664">
								<g
   id="g42662">
									<g
   id="g42660">
										<g
   id="g42658">
											<g
   id="g42656">
												<g
   id="g42654">
													<g
   id="g42652">
														<g
   id="g42650">
															<g
   id="g42648">
																<g
   id="g42646">
																	<g
   id="g42644">
																		<g
   id="g42642">
																			<g
   id="g42640">
																				<g
   id="g42638">
																					<g
   id="g42636">
																						<g
   id="g42634">
																							<g
   id="g42632">
																								<g
   id="g42630">
																									<path
   style="fill:#000002"
   d="m 188.891,256.111 c -4.142,0 -7.5,-3.358 -7.5,-7.5 v -42.159 c 0,-4.142 3.358,-7.5 7.5,-7.5 4.142,0 7.5,3.358 7.5,7.5 v 42.159 c 0,4.142 -3.358,7.5 -7.5,7.5 z"
   id="path42628" />
																								</g>
																							</g>
																						</g>
																					</g>
																				</g>
																			</g>
																		</g>
																	</g>
																</g>
															</g>
														</g>
													</g>
												</g>
											</g>
										</g>
									</g>
								</g>
							</g>
						</g>
					</g>
				</g>
			</g>
		</g>
	</g>
</g><path
   d="m 7.5430318,22.379032 1.062,-0.013 -0.21,-17.8720002 v 0 l -0.023,-2.004 -2.132,0.025 c -0.009,-0.688 -0.018,-1.377 -0.024,-2.06500005 -0.003,-0.243 -0.203,-0.453 -0.45,-0.449999996641 -1.771,0.02099999664 -3.544,0.04099999664 -5.31600005,0.06199999664 -0.243,0.003 -0.453,0.203 -0.449999996641,0.45 C 0.03903175,3.8940318 0.07903175,7.2760318 0.11803175,10.658032 c 0.075,6.425 0.15,12.849 0.225,19.274 0.045,3.885 0.091,7.77 0.136,11.654 0.003,0.23 0.089,0.434 0.163,0.65 0.31,0.912 0.61900005,1.824 0.92900005,2.733 0.553,1.632 1.107,3.263 1.661,4.892 0.011,0.088 0.055,0.156 0.111,0.215 0.003,0.004 0.007,0.007 0.01,0.01 0.033,0.033 0.07,0.061 0.112,0.081 0.017,0.009 0.031,0.017 0.048,0.022 0.039,0.015 0.077,0.021 0.118,0.027 0.012,0.001 0.023,0.003 0.035,0.003 0.05,0.003 0.097,-0.003 0.145,-0.015 0.006,-0.002 0.011,-0.004 0.017,-0.004 0.037,-0.012 0.07,-0.027 0.104,-0.049 0.032,-0.018 0.059,-0.039 0.084,-0.062 0.005,-0.005 0.009,-0.009 0.014,-0.015 0.06,-0.061 0.103,-0.137 0.108,-0.23 0.709,-2.363 1.419,-4.727 2.128,-7.089 0.145,-0.478 0.434,-1.054 0.428,-1.56 -0.007,-0.401 -0.011,-0.805 -0.016,-1.207 -0.058,-5.004 -0.117,-10.008 -0.175,-15.011 -0.072,-6.18 -0.145,-12.361 -0.217,-18.5410002 -0.007,-0.641 -0.015,-1.281 -0.022,-1.921 l 1.071,-0.013 z m -2.204,-19.8530002 -4.41600005,0.052 c -0.006,-0.54 -0.012,-1.081 -0.019,-1.62100005 1.47200005,-0.017 2.94300005,-0.034 4.41600005,-0.051 0.006,0.53900005 0.012,1.08000005 0.019,1.62000005 z m -0.64,42.3160002 c -0.348,1.159 -0.696,2.318 -1.044,3.479 -0.646,-1.902 -1.293,-3.805 -1.938,-5.705 -0.106,-0.312 -0.211,-0.623 -0.318,-0.938 l 4.265,-0.05 c -0.024,0.082 -0.049,0.163 -0.073,0.245 -0.297,0.99 -0.595,1.981 -0.892,2.969 z m 0.735,-34.191 c 0.075,6.42 0.15,12.84 0.226,19.259 0.044,3.671 0.086,7.341 0.129,11.01 l -4.417,0.053 c -0.003,-0.275 -0.007,-0.553 -0.01,-0.828 -0.06,-5.121 -0.12,-10.242 -0.179,-15.363 -0.072,-6.153 -0.144,-12.307 -0.21500005,-18.4600002 -0.007,-0.58 -0.014,-1.16 -0.021,-1.74 l 4.41700005,-0.051 c 0.022,2.039 0.045,4.079 0.07,6.1200002 z"
   id="path40733" /><path
   d="m 9.7875386,27.02573 c 2.3151384,1.666181 2.9299644,5.302158 2.7910164,8.498573 -0.188468,4.335556 0.829598,8.82959 6.109302,8.639162 1.017926,-0.03672 1.018359,0.54974 0,0.528137 -6.732655,-0.142821 -6.875476,-5.082934 -6.875476,-9.167299 0,-4.736401 -0.258315,-8.258307 -5.347592,-8.258307 -1.0185887,0 -1.0185887,-0.623353 0,-0.623353 5.089277,0 5.347592,-3.188658 5.347592,-7.925058 0,-4.084365 0,-8.8340528 6.875476,-9.0244808 1.018198,-0.0282 1.063508,0.6020888 0.04761,0.5281388 -5.232098,-0.3808548 -6.358203,3.75072 -6.204517,8.496342 0.124048,3.830428 -0.333057,6.641963 -2.7434088,8.308145 z"
   id="path62080"
   sodipodi:nodetypes="cssssssssssc"
   style="stroke-width:0.190986" /></svg>
