<?xml version="1.0" encoding="UTF-8" standalone="no"?>
<!-- Generator: Adobe Illustrator 19.0.0, SVG Export Plug-In . SVG Version: 6.00 Build 0)  -->

<svg
   version="1.1"
   id="Layer_1"
   x="0px"
   y="0px"
   viewBox="0 0 512 512"
   style="enable-background:new 0 0 512 512;"
   xml:space="preserve"
   sodipodi:docname="pen_customizations.svg"
   inkscape:version="1.2.1 (9c6d41e, 2022-07-14)"
   xmlns:inkscape="http://www.inkscape.org/namespaces/inkscape"
   xmlns:sodipodi="http://sodipodi.sourceforge.net/DTD/sodipodi-0.dtd"
   xmlns="http://www.w3.org/2000/svg"
   xmlns:svg="http://www.w3.org/2000/svg"><defs
   id="defs39224" /><sodipodi:namedview
   id="namedview39222"
   pagecolor="#ffffff"
   bordercolor="#000000"
   borderopacity="0.25"
   inkscape:showpageshadow="2"
   inkscape:pageopacity="0.0"
   inkscape:pagecheckerboard="0"
   inkscape:deskcolor="#d1d1d1"
   showgrid="false"
   inkscape:zoom="2.0058594"
   inkscape:cx="255.75073"
   inkscape:cy="256"
   inkscape:window-width="1390"
   inkscape:window-height="1205"
   inkscape:window-x="277"
   inkscape:window-y="25"
   inkscape:window-maximized="0"
   inkscape:current-layer="Layer_1" />
<g
   id="g39177">
	<g
   id="g39175">
		<path
   d="M494.638,17.347c-23.122-23.121-60.752-23.114-83.884,0.017L333.897,94.22c-0.002,0.003-0.005,0.005-0.007,0.007    c-0.003,0.003-0.005,0.005-0.007,0.007L61.317,366.803c-1.636,1.634-2.645,3.791-2.855,6.093l-6.988,76.879    c-0.265,2.922,0.779,5.811,2.855,7.884c1.86,1.863,4.38,2.896,6.988,2.896c0.297,0,0.596-0.015,0.895-0.041l76.879-6.988    c2.302-0.21,4.459-1.219,6.093-2.855l20.958-20.958c0.003-0.002,0.007-0.005,0.012-0.01c0.005-0.005,0.007-0.01,0.01-0.012    l328.458-328.457C505.822,90.033,511.993,75.14,512,59.295C512.005,43.446,505.839,28.549,494.638,17.347z M133.736,434.161    l-61.502,5.591l5.591-61.502l11.45-11.45l55.911,55.911L133.736,434.161z M159.163,408.735l-55.911-55.911l237.627-237.628    l55.914,55.911L159.163,408.735z M480.644,87.255l-69.876,69.875l-55.911-55.911l69.873-69.875    c15.429-15.422,40.516-15.432,55.931-0.017c7.464,7.465,11.573,17.395,11.571,27.962    C492.227,69.855,488.113,79.787,480.644,87.255z"
   id="path39173" />
	</g>
</g>
<g
   id="g39183">
	<g
   id="g39181">
		<path
   d="M47.338,464.649c-3.861-3.861-10.12-3.861-13.977,0L2.896,495.116c-3.861,3.858-3.861,10.118,0,13.977    c1.931,1.93,4.459,2.896,6.989,2.896c2.529,0,5.06-0.965,6.988-2.896l30.465-30.468C51.199,474.767,51.199,468.507,47.338,464.649    z"
   id="path39179" />
	</g>
</g>
<g
   id="g39189">
	<g
   id="g39187">
		<path
   d="M466.682,45.304c-3.856-3.858-10.12-3.858-13.976,0l-62.902,62.902c-3.861,3.861-3.861,10.118,0,13.979    c1.928,1.929,4.459,2.894,6.989,2.894c2.529,0,5.06-0.965,6.988-2.894l62.902-62.902    C470.543,55.422,470.543,49.165,466.682,45.304z"
   id="path39185" />
	</g>
</g>
<g
   id="g39191">
</g>
<g
   id="g39193">
</g>
<g
   id="g39195">
</g>
<g
   id="g39197">
</g>
<g
   id="g39199">
</g>
<g
   id="g39201">
</g>
<g
   id="g39203">
</g>
<g
   id="g39205">
</g>
<g
   id="g39207">
</g>
<g
   id="g39209">
</g>
<g
   id="g39211">
</g>
<g
   id="g39213">
</g>
<g
   id="g39215">
</g>
<g
   id="g39217">
</g>
<g
   id="g39219">
</g>
<g
   id="g28316"
   transform="matrix(0.3685896,-0.3323236,0.3323236,0.3685896,-56.022493,115.55424)">
	<path
   d="M 52.8,311.3 C 40,298.5 40,277.9 52.8,265.1 c 6.4,-6.4 14.7,-9.6 23.1,-9.6 8.4,0 16.7,3.2 23.1,9.6 L 212.4,378.5 V 32.7 C 212.4,14.7 227,0 245.1,0 c 18,0 32.7,14.6 32.7,32.7 V 378.5 L 391,265.1 c 12.8,-12.8 33.4,-12.8 46.2,0 12.8,12.8 12.8,33.4 0,46.2 L 268.1,480.4 c -6.1,6.1 -14.4,9.6 -23.1,9.6 -8.7,0 -17,-3.4 -23.1,-9.6 z"
   id="path28314" />
</g><g
   id="g28318"
   transform="matrix(0.37632876,-0.3393013,0.3393013,0.37632876,-56.35682,115.85567)">
</g><g
   id="g28320"
   transform="matrix(0.37632876,-0.3393013,0.3393013,0.37632876,-56.35682,115.85567)">
</g><g
   id="g28322"
   transform="matrix(0.37632876,-0.3393013,0.3393013,0.37632876,-56.35682,115.85567)">
</g><g
   id="g28324"
   transform="matrix(0.37632876,-0.3393013,0.3393013,0.37632876,-56.35682,115.85567)">
</g><g
   id="g28326"
   transform="matrix(0.37632876,-0.3393013,0.3393013,0.37632876,-56.35682,115.85567)">
</g><g
   id="g28328"
   transform="matrix(0.37632876,-0.3393013,0.3393013,0.37632876,-56.35682,115.85567)">
</g><g
   id="g28330"
   transform="matrix(0.37632876,-0.3393013,0.3393013,0.37632876,-56.35682,115.85567)">
</g><g
   id="g28332"
   transform="matrix(0.37632876,-0.3393013,0.3393013,0.37632876,-56.35682,115.85567)">
</g><g
   id="g28334"
   transform="matrix(0.37632876,-0.3393013,0.3393013,0.37632876,-56.35682,115.85567)">
</g><g
   id="g28336"
   transform="matrix(0.37632876,-0.3393013,0.3393013,0.37632876,-56.35682,115.85567)">
</g><g
   id="g28338"
   transform="matrix(0.37632876,-0.3393013,0.3393013,0.37632876,-56.35682,115.85567)">
</g><g
   id="g28340"
   transform="matrix(0.37632876,-0.3393013,0.3393013,0.37632876,-56.35682,115.85567)">
</g><g
   id="g28342"
   transform="matrix(0.37632876,-0.3393013,0.3393013,0.37632876,-56.35682,115.85567)">
</g><g
   id="g28344"
   transform="matrix(0.37632876,-0.3393013,0.3393013,0.37632876,-56.35682,115.85567)">
</g><g
   id="g28346"
   transform="matrix(0.37632876,-0.3393013,0.3393013,0.37632876,-56.35682,115.85567)">
</g></svg>
